<?xml version="1.0" encoding="UTF-8" standalone="no"?>
<!-- Generator: Adobe Illustrator 19.0.0, SVG Export Plug-In . SVG Version: 6.00 Build 0)  -->

<svg
   xmlns:dc="http://purl.org/dc/elements/1.1/"
   xmlns:cc="http://creativecommons.org/ns#"
   xmlns:rdf="http://www.w3.org/1999/02/22-rdf-syntax-ns#"
   xmlns:svg="http://www.w3.org/2000/svg"
   xmlns="http://www.w3.org/2000/svg"
   xmlns:xlink="http://www.w3.org/1999/xlink"
   xmlns:sodipodi="http://sodipodi.sourceforge.net/DTD/sodipodi-0.dtd"
   xmlns:inkscape="http://www.inkscape.org/namespaces/inkscape"
   version="1.1"
   id="Calque_1"
   x="0px"
   y="0px"
   viewBox="0 0 1096.0902 385.23209"
   xml:space="preserve"
   sodipodi:docname="jekyll-fresh.svg.2018_05_12_20_37_33.0.svg"
   inkscape:version="0.92.2 (5c3e80d, 2017-08-06)"
   width="1096.0902"
   height="385.23209"><metadata
     id="metadata36"><rdf:RDF><cc:Work
         rdf:about=""><dc:format>image/svg+xml</dc:format><dc:type
           rdf:resource="http://purl.org/dc/dcmitype/StillImage" /><dc:title></dc:title></cc:Work></rdf:RDF></metadata><defs
     id="defs34"><linearGradient
       gradientTransform="matrix(0.9138,-0.4062,0.4062,0.9138,-80.6459,125.703)"
       y2="291.9339"
       x2="283.12949"
       y1="215.26289"
       x1="206.4585"
       gradientUnits="userSpaceOnUse"
       id="tube_3_"><stop
         id="stop5206"
         style="stop-color:#919191"
         offset="0" /><stop
         id="stop5208"
         style="stop-color:#FFFFFF"
         offset="1" /></linearGradient><linearGradient
       gradientTransform="matrix(0.9138,-0.4062,0.4062,0.9138,-80.6459,125.703)"
       y2="320.16891"
       x2="224.04559"
       y1="273.75229"
       x1="177.62891"
       gradientUnits="userSpaceOnUse"
       id="liquid_2_"
       xlink:href="#linearGradient5327"><stop
         id="stop5212"
         style="stop-color:#990000"
         offset="0" /><stop
         id="stop5214"
         style="stop-color:#E80000"
         offset="1" /></linearGradient></defs><sodipodi:namedview
     pagecolor="#ffffff"
     bordercolor="#666666"
     borderopacity="1"
     objecttolerance="10"
     gridtolerance="10"
     guidetolerance="10"
     inkscape:pageopacity="0"
     inkscape:pageshadow="2"
     inkscape:window-width="1366"
     inkscape:window-height="669"
     id="namedview32"
     showgrid="false"
     inkscape:zoom="0.48520173"
     inkscape:cx="572.45595"
     inkscape:cy="30.101417"
     inkscape:window-x="0"
     inkscape:window-y="28"
     inkscape:window-maximized="1"
     inkscape:current-layer="Calque_1"
     fit-margin-top="5"
     fit-margin-left="5"
     fit-margin-right="5"
     fit-margin-bottom="5" /><style
     type="text/css"
     id="style2">
	.st0{fill:#344358;}
	.st1{fill:#F39208;}
	.st2{fill:#FCC010;}
	.st3{fill:#F49619;}
	.st4{fill:#EC630E;}
	.st5{fill:#CBEAFC;}
	.st6{fill:#77C2E0;}
	.st7{fill:#F9DE6A;}
	.st8{fill:#C6781A;}
	.st9{fill:#010202;}
</style><ellipse
     id="XMLID_2_"
     class="st0"
     cx="1006.1104"
     cy="220.22527"
     style="fill:#344358;stroke-width:1.01716769"
     rx="25.985575"
     ry="26.70867" /><ellipse
     id="XMLID_19_"
     class="st1"
     cx="1060.1885"
     cy="153.71141"
     style="fill:#f39208;stroke-width:1.01716769"
     rx="30.901751"
     ry="31.761663" /><ellipse
     id="XMLID_20_"
     class="st0"
     cx="1064.6027"
     cy="240.54033"
     style="fill:#344358;stroke-width:1.01716769"
     rx="13.042953"
     ry="13.405897" /><g
     id="XMLID_60_"
     transform="matrix(1.0312229,0,0,1.0312229,-109.14038,31.099011)"><path
       id="XMLID_61_"
       class="st0"
       d="m 344.2003,111.9 v 43.6 h 81.72583 v 49.7 H 344.2003 v 83 H 293.9 v -226 h 133.5828 v 49.7 z"
       inkscape:connector-curvature="0"
       style="fill:#344358;stroke-width:0.98637038" /><path
       id="XMLID_63_"
       class="st0"
       d="m 550.07154,123.5 v 54.9 c -19.45853,-3.2 -47.18693,4.8 -47.18693,36.8 v 73 H 455.69767 V 126.8 h 47.18694 v 28.8 c 6.32402,-21.7 27.33923,-32.1 47.18693,-32.1 z"
       inkscape:connector-curvature="0"
       style="fill:#344358;stroke-width:0.98637038" /><path
       id="XMLID_65_"
       class="st1"
       d="m 647.1696,249.5 c 12.84264,0 23.934,-5.2 30.16073,-12.3 l 37.74954,22.3 c -15.37223,22 -38.62517,33.3 -68.49402,33.3 -53.70554,0 -87.07692,-37.1 -87.07692,-85.3 0,-48.1 33.95514,-85.3 83.57438,-85.3 45.92213,0 79.77998,36.5 79.77998,85.3 0,6.8 -0.58376,13.2 -1.84856,19.4 H 609.42006 c 6.03214,16.8 20.43145,22.6 37.74954,22.6 z m 28.89593,-58.8 c -5.05923,-18.7 -19.16666,-25.5 -33.27409,-25.5 -17.90185,0 -29.86884,9 -34.24701,25.5 z"
       inkscape:connector-curvature="0"
       style="fill:#f39208;stroke-width:0.98637038" /><path
       id="XMLID_68_"
       class="st0"
       d="m 865.29973,239.8 c 0,37.1 -31.42553,53 -65.38066,53 -31.42553,0 -55.35953,-12.3 -67.6184,-38.4 l 40.86292,-23.9 c 4.08628,12.3 12.84262,19.1 26.75548,19.1 11.28594,0 16.92892,-3.6 16.92892,-10 0,-17.8 -77.34766,-8.4 -77.34766,-64.3 0,-35.2 28.89591,-53 61.58624,-53 25.49068,0 48.06257,11.6 61.29437,34.6 l -40.18186,22.3 c -4.37817,-8.4 -10.70219,-14.2 -21.01521,-14.2 -8.17258,0 -13.2318,3.2 -13.2318,9 0,18.3 77.34766,6.1 77.34766,65.8 z"
       inkscape:connector-curvature="0"
       style="fill:#344358;stroke-width:0.98637038" /><path
       id="XMLID_70_"
       class="st0"
       d="m 1039.6481,189.1 v 99.2 h -47.08961 v -92.1 c 0,-20 -12.25886,-29.4 -27.33922,-29.4 -17.31809,0 -29.18779,10.3 -29.18779,33.3 v 88.2 H 888.84454 V 62.2 h 47.18694 V 142 c 8.46446,-12 24.22586,-19.7 44.9492,-19.7 31.71732,-0.1 58.66742,23.2 58.66742,66.8 z"
       inkscape:connector-curvature="0"
       style="fill:#344358;stroke-width:0.98637038" /></g><g
     transform="matrix(1.1274109,0.00882144,0.00863847,1.074008,183.02947,324.39722)"
     id="g5299"><g
       id="test-tube"
       transform="translate(-252.66351,-16.030806)"><linearGradient
         gradientTransform="matrix(0.9138,-0.4062,0.4062,0.9138,-80.6459,125.703)"
         y2="291.9339"
         x2="283.12949"
         y1="215.26289"
         x1="206.4585"
         gradientUnits="userSpaceOnUse"
         id="linearGradient5320"><stop
           id="stop5316"
           style="stop-color:#919191"
           offset="0" /><stop
           id="stop5318"
           style="stop-color:#FFFFFF"
           offset="1" /></linearGradient><linearGradient
         gradientTransform="matrix(0.9138,-0.4062,0.4062,0.9138,-80.6459,125.703)"
         y2="320.16891"
         x2="224.04559"
         y1="273.75229"
         x1="177.62891"
         gradientUnits="userSpaceOnUse"
         id="linearGradient5327"><stop
           id="stop5323"
           style="stop-color:#990000"
           offset="0" /><stop
           id="stop5325"
           style="stop-color:#E80000"
           offset="1" /></linearGradient><g
         id="g61"
         transform="matrix(0.85365689,0,0,0.85365689,-25.957349,-324.56182)"><path
           id="shadow_2_"
           d="m 269.02,59.151 c -0.184,0.737 -0.188,1.529 -0.033,2.365 0,0 2.507,16.642 -0.339,24.048 l -121.005,314.633 0.009,0.004 c -8.636,23.11 2.937,48.911 26.014,57.787 23.077,8.875 48.955,-2.524 58.03,-25.464 l 0.011,0.005 121.005,-314.634 c 2.366,-6.155 15.86,-18.079 15.86,-18.079 0.677,-0.516 1.202,-1.108 1.56,-1.778 l 0.059,-0.122 c 0.065,-0.132 0.141,-0.258 0.193,-0.395 3.12,-8.113 -17.005,-23.405 -44.952,-34.152 -27.948,-10.748 -53.133,-12.884 -56.253,-4.771 -0.053,0.137 -0.083,0.281 -0.122,0.422 z"
           inkscape:connector-curvature="0"
           style="opacity:0.3" /><path
           id="tube_2_"
           d="m 265.523,56.477 c -0.185,0.737 -0.19,1.529 -0.033,2.365 0,0 2.508,16.642 -0.34,24.048 l -121.006,314.632 0.011,0.004 c -8.635,23.11 2.937,48.911 26.014,57.787 23.075,8.875 48.955,-2.524 58.03,-25.464 l 0.011,0.005 121.005,-314.634 c 2.365,-6.155 15.86,-18.079 15.86,-18.079 0.677,-0.516 1.202,-1.107 1.56,-1.778 l 0.058,-0.122 c 0.065,-0.131 0.141,-0.258 0.193,-0.395 3.12,-8.113 -17.005,-23.404 -44.951,-34.152 -27.948,-10.748 -53.133,-12.884 -56.253,-4.771 -0.053,0.137 -0.083,0.281 -0.122,0.422 z"
           inkscape:connector-curvature="0"
           style="fill:url(#tube_3_)" /><path
           id="liquid"
           d="m 303.48,198.814 -87.262,226.896 0.057,0.021 c -6.436,16.262 -25.166,24.723 -41.781,18.333 -16.615,-6.39 -25.608,-25.512 -19.488,-41.897 v 0 l 55.758,-144.982 c 0,0 6.964,-11.233 20.637,-19.225 13.673,-7.991 24.949,-6.305 40.132,-13.053 15.182,-6.748 31.947,-26.093 31.947,-26.093 z"
           inkscape:connector-curvature="0"
           style="fill:#f39208;fill-opacity:1" /><ellipse
           id="top"
           transform="matrix(0.9334,0.359,-0.359,0.9334,48.4129,-108.3439)"
           cx="315.97"
           cy="76.200996"
           rx="33.647999"
           ry="8.8500004"
           style="fill:#333333" /><path
           id="side-reflection"
           d="m 265.489,58.841 c 0,0 2.471,16.737 -0.34,24.048 l -121.005,314.633 0.011,0.004 c -8.635,23.11 2.937,48.911 26.014,57.787 4.005,1.54 8.092,2.455 12.164,2.822 -15.556,-11.702 -22.23,-32.632 -15.093,-51.73 l -0.011,-0.004 118.604,-308.392 c 0,0 -16.144,-15.159 -20.344,-39.168 z"
           inkscape:connector-curvature="0"
           style="opacity:0.3;fill:#ffffff" /><g
           id="bubbles"><circle
             cx="226.53101"
             cy="261.806"
             r="3.506"
             id="circle5220"
             style="opacity:0.5;fill:#ffffff" /><circle
             cx="249.51401"
             cy="287.22699"
             r="5.2849998"
             id="circle5222"
             style="opacity:0.5;fill:#ffffff" /><circle
             cx="214.429"
             cy="317.45901"
             r="9.915"
             id="circle5224"
             style="opacity:0.5;fill:#ffffff" /><circle
             cx="198.375"
             cy="335.79501"
             r="5.2859998"
             id="circle5226"
             style="opacity:0.5;fill:#ffffff" /><circle
             cx="219.42999"
             cy="375.008"
             r="3.506"
             id="circle5228"
             style="opacity:0.5;fill:#ffffff" /></g></g></g></g></svg>