<?xml version="1.0" encoding="UTF-8" standalone="no"?>
<!-- Generator: Adobe Illustrator 19.0.0, SVG Export Plug-In . SVG Version: 6.00 Build 0)  -->

<svg
   xmlns:dc="http://purl.org/dc/elements/1.1/"
   xmlns:cc="http://creativecommons.org/ns#"
   xmlns:rdf="http://www.w3.org/1999/02/22-rdf-syntax-ns#"
   xmlns:svg="http://www.w3.org/2000/svg"
   xmlns="http://www.w3.org/2000/svg"
   xmlns:xlink="http://www.w3.org/1999/xlink"
   xmlns:sodipodi="http://sodipodi.sourceforge.net/DTD/sodipodi-0.dtd"
   xmlns:inkscape="http://www.inkscape.org/namespaces/inkscape"
   version="1.1"
   id="Calque_1"
   x="0px"
   y="0px"
   viewBox="0 0 1096.0902 385.23209"
   xml:space="preserve"
   sodipodi:docname="jekyll-fresh-white.svg"
   inkscape:version="0.92.2 (5c3e80d, 2017-08-06)"
   width="1096.0902"
   height="385.23209"><metadata
     id="metadata36"><rdf:RDF><cc:Work
         rdf:about=""><dc:format>image/svg+xml</dc:format><dc:type
           rdf:resource="http://purl.org/dc/dcmitype/StillImage" /><dc:title /></cc:Work></rdf:RDF></metadata><defs
     id="defs34"><linearGradient
       gradientTransform="matrix(0.9138,-0.4062,0.4062,0.9138,-80.6459,125.703)"
       y2="291.9339"
       x2="283.12949"
       y1="215.26289"
       x1="206.4585"
       gradientUnits="userSpaceOnUse"
       id="tube_3_"><stop
         id="stop5206"
         style="stop-color:#919191"
         offset="0" /><stop
         id="stop5208"
         style="stop-color:#FFFFFF"
         offset="1" /></linearGradient><linearGradient
       gradientTransform="matrix(0.9138,-0.4062,0.4062,0.9138,-80.6459,125.703)"
       y2="320.16891"
       x2="224.04559"
       y1="273.75229"
       x1="177.62891"
       gradientUnits="userSpaceOnUse"
       id="liquid_2_"
       xlink:href="#linearGradient5327"><stop
         id="stop5212"
         style="stop-color:#990000"
         offset="0" /><stop
         id="stop5214"
         style="stop-color:#E80000"
         offset="1" /></linearGradient></defs><sodipodi:namedview
     pagecolor="#ffffff"
     bordercolor="#666666"
     borderopacity="1"
     objecttolerance="10"
     gridtolerance="10"
     guidetolerance="10"
     inkscape:pageopacity="0"
     inkscape:pageshadow="2"
     inkscape:window-width="1366"
     inkscape:window-height="669"
     id="namedview32"
     showgrid="false"
     inkscape:zoom="0.68617887"
     inkscape:cx="798.34176"
     inkscape:cy="157.68281"
     inkscape:window-x="0"
     inkscape:window-y="28"
     inkscape:window-maximized="1"
     inkscape:current-layer="g61"
     fit-margin-top="5"
     fit-margin-left="5"
     fit-margin-right="5"
     fit-margin-bottom="5" /><style
     type="text/css"
     id="style2">
	.st0{fill:#344358;}
	.st1{fill:#F39208;}
	.st2{fill:#FCC010;}
	.st3{fill:#F49619;}
	.st4{fill:#EC630E;}
	.st5{fill:#CBEAFC;}
	.st6{fill:#77C2E0;}
	.st7{fill:#F9DE6A;}
	.st8{fill:#C6781A;}
	.st9{fill:#010202;}
</style><ellipse
     id="XMLID_2_"
     class="st0"
     cx="1006.1104"
     cy="220.22527"
     style="fill:#f9f9f9;stroke-width:1.01716769"
     rx="25.985575"
     ry="26.70867" /><ellipse
     id="XMLID_19_"
     class="st1"
     cx="1060.1885"
     cy="153.71141"
     style="fill:#f39208;stroke-width:1.01716769"
     rx="30.901751"
     ry="31.761663" /><ellipse
     id="XMLID_20_"
     class="st0"
     cx="1064.6027"
     cy="240.54033"
     style="fill:#f9f9f9;stroke-width:1.01716769"
     rx="13.042953"
     ry="13.405897" /><path
     style="fill:#f9f9f9;stroke-width:1.01716769"
     inkscape:connector-curvature="0"
     d="m 245.80685,146.49285 v 44.96132 h 84.27755 v 51.25178 h -84.27755 v 85.5915 H 193.93603 V 95.241075 h 137.75364 v 51.251775 z"
     class="st0"
     id="XMLID_61_" /><path
     style="fill:#f9f9f9;stroke-width:1.01716769"
     inkscape:connector-curvature="0"
     d="m 458.10599,158.45504 v 56.61414 c -20.06608,-3.29992 -48.66024,4.94987 -48.66024,37.949 v 75.27927 H 360.78549 V 161.85807 h 48.66026 v 29.69922 c 6.52147,-22.37753 28.19284,-33.10225 48.66024,-33.10225 z"
     class="st0"
     id="XMLID_63_" /><path
     style="fill:#f39208;stroke-width:1.01716769"
     inkscape:connector-curvature="0"
     d="m 558.23573,288.38912 c 13.24363,0 24.68129,-5.36235 31.10244,-12.68404 l 38.92819,22.99627 c -15.8522,22.68691 -39.83116,34.33973 -70.6326,34.33973 -55.38239,0 -89.79572,-38.25837 -89.79572,-87.96332 0,-49.60182 35.01532,-87.96331 86.18382,-87.96331 47.35595,0 82.27094,37.63964 82.27094,87.96331 0,7.01232 -0.60199,13.61215 -1.90628,20.00573 H 519.30754 c 6.22048,17.32454 21.06938,23.30563 38.92819,23.30563 z m 29.79815,-60.6359 c -5.2172,-19.28387 -19.7651,-26.29619 -34.31301,-26.29619 -18.46079,0 -30.80143,9.28101 -35.3163,26.29619 z"
     class="st1"
     id="XMLID_65_" /><path
     style="fill:#f9f9f9;stroke-width:1.01716769"
     inkscape:connector-curvature="0"
     d="m 783.17652,278.38626 c 0,38.25837 -32.40673,54.65482 -67.42204,54.65482 -32.40672,0 -57.08801,-12.68405 -69.72964,-39.59896 l 42.13878,-24.64623 c 4.21386,12.68404 13.2436,19.69636 27.59086,19.69636 11.63832,0 17.45749,-3.71241 17.45749,-10.31223 0,-18.35577 -79.76268,-8.66227 -79.76268,-66.30763 0,-36.29905 29.79813,-54.65482 63.50915,-54.65482 26.28657,0 49.56322,11.96219 63.20815,35.68031 l -41.43645,22.99627 c -4.51487,-8.66227 -11.03634,-14.64336 -21.67137,-14.64336 -8.42775,0 -13.64493,3.29991 -13.64493,9.28101 0,18.87137 79.76268,6.29046 79.76268,67.85446 z"
     class="st0"
     id="XMLID_68_" /><path
     style="fill:#f9f9f9;stroke-width:1.01716769"
     inkscape:connector-curvature="0"
     d="m 962.96855,226.10326 v 102.29731 h -48.55989 v -94.97563 c 0,-20.62445 -12.64161,-30.31795 -28.19283,-30.31795 -17.85881,0 -30.09911,10.6216 -30.09911,34.33972 v 90.95386 H 807.45646 V 95.241075 h 48.66026 v 82.291585 c 8.72874,-12.37467 24.98226,-20.31509 46.35264,-20.31509 32.70763,-0.10312 60.49919,23.92437 60.49919,68.88569 z"
     class="st0"
     id="XMLID_70_" /><g
     transform="matrix(1.1274109,0.00882144,0.00863847,1.074008,183.02947,324.39722)"
     id="g5299"><g
       id="test-tube"
       transform="translate(-252.66351,-16.030806)"><linearGradient
         gradientTransform="matrix(0.9138,-0.4062,0.4062,0.9138,-80.6459,125.703)"
         y2="291.9339"
         x2="283.12949"
         y1="215.26289"
         x1="206.4585"
         gradientUnits="userSpaceOnUse"
         id="linearGradient5320"><stop
           id="stop5316"
           style="stop-color:#919191"
           offset="0" /><stop
           id="stop5318"
           style="stop-color:#FFFFFF"
           offset="1" /></linearGradient><linearGradient
         gradientTransform="matrix(0.9138,-0.4062,0.4062,0.9138,-80.6459,125.703)"
         y2="320.16891"
         x2="224.04559"
         y1="273.75229"
         x1="177.62891"
         gradientUnits="userSpaceOnUse"
         id="linearGradient5327"><stop
           id="stop5323"
           style="stop-color:#990000"
           offset="0" /><stop
           id="stop5325"
           style="stop-color:#E80000"
           offset="1" /></linearGradient><g
         id="g61"
         transform="matrix(0.85365689,0,0,0.85365689,-25.957349,-324.56182)"><path
           id="shadow_2_"
           d="m 269.02,59.151 c -0.184,0.737 -0.188,1.529 -0.033,2.365 0,0 2.507,16.642 -0.339,24.048 l -121.005,314.633 0.009,0.004 c -8.636,23.11 2.937,48.911 26.014,57.787 23.077,8.875 48.955,-2.524 58.03,-25.464 l 0.011,0.005 121.005,-314.634 c 2.366,-6.155 15.86,-18.079 15.86,-18.079 0.677,-0.516 1.202,-1.108 1.56,-1.778 l 0.059,-0.122 c 0.065,-0.132 0.141,-0.258 0.193,-0.395 3.12,-8.113 -17.005,-23.405 -44.952,-34.152 -27.948,-10.748 -53.133,-12.884 -56.253,-4.771 -0.053,0.137 -0.083,0.281 -0.122,0.422 z"
           inkscape:connector-curvature="0"
           style="opacity:0.3" /><path
           id="tube_2_"
           d="m 265.523,56.477 c -0.185,0.737 -0.19,1.529 -0.033,2.365 0,0 2.508,16.642 -0.34,24.048 l -121.006,314.632 0.011,0.004 c -8.635,23.11 2.937,48.911 26.014,57.787 23.075,8.875 48.955,-2.524 58.03,-25.464 l 0.011,0.005 121.005,-314.634 c 2.365,-6.155 15.86,-18.079 15.86,-18.079 0.677,-0.516 1.202,-1.107 1.56,-1.778 l 0.058,-0.122 c 0.065,-0.131 0.141,-0.258 0.193,-0.395 3.12,-8.113 -17.005,-23.404 -44.951,-34.152 -27.948,-10.748 -53.133,-12.884 -56.253,-4.771 -0.053,0.137 -0.083,0.281 -0.122,0.422 z"
           inkscape:connector-curvature="0"
           style="fill:#f2f2f2" /><path
           id="liquid"
           d="m 303.48,198.814 -87.262,226.896 0.057,0.021 c -6.436,16.262 -25.166,24.723 -41.781,18.333 -16.615,-6.39 -25.608,-25.512 -19.488,-41.897 v 0 l 55.758,-144.982 c 0,0 6.964,-11.233 20.637,-19.225 13.673,-7.991 24.949,-6.305 40.132,-13.053 15.182,-6.748 31.947,-26.093 31.947,-26.093 z"
           inkscape:connector-curvature="0"
           style="fill:#f39208;fill-opacity:1" /><ellipse
           id="top"
           transform="matrix(0.9334,0.359,-0.359,0.9334,48.4129,-108.3439)"
           cx="315.97"
           cy="76.200996"
           rx="33.647999"
           ry="8.8500004"
           style="fill:#333333" /><path
           id="side-reflection"
           d="m 265.489,58.841 c 0,0 2.471,16.737 -0.34,24.048 l -121.005,314.633 0.011,0.004 c -8.635,23.11 2.937,48.911 26.014,57.787 4.005,1.54 8.092,2.455 12.164,2.822 -15.556,-11.702 -22.23,-32.632 -15.093,-51.73 l -0.011,-0.004 118.604,-308.392 c 0,0 -16.144,-15.159 -20.344,-39.168 z"
           inkscape:connector-curvature="0"
           style="opacity:0.3;fill:#ffffff" /><g
           id="bubbles"><circle
             cx="226.53101"
             cy="261.806"
             r="3.506"
             id="circle5220"
             style="opacity:0.5;fill:#ffffff" /><circle
             cx="249.51401"
             cy="287.22699"
             r="5.2849998"
             id="circle5222"
             style="opacity:0.5;fill:#ffffff" /><circle
             cx="214.429"
             cy="317.45901"
             r="9.915"
             id="circle5224"
             style="opacity:0.5;fill:#ffffff" /><circle
             cx="198.375"
             cy="335.79501"
             r="5.2859998"
             id="circle5226"
             style="opacity:0.5;fill:#ffffff" /><circle
             cx="219.42999"
             cy="375.008"
             r="3.506"
             id="circle5228"
             style="opacity:0.5;fill:#ffffff" /></g></g></g></g></svg>